<?xml version="1.0" encoding="UTF-8"?>
<svg width="16px" height="16px" viewBox="0 0 16 16" version="1.1" xmlns="http://www.w3.org/2000/svg" xmlns:xlink="http://www.w3.org/1999/xlink">
    <!-- Generator: Sketch 51.3 (57544) - http://www.bohemiancoding.com/sketch -->
    <title>Slice</title>
    <desc>Created with Sketch.</desc>
    <defs></defs>
    <g id="Page-1" stroke="none" stroke-width="1" fill="none" fill-rule="evenodd">
        <path d="M14.931463,3.9870372 C14.2161422,2.7614671 13.2457607,1.7905742 12.0201906,1.07576485 C10.7943648,0.3604441 9.45551965,0.00284765 8.00467785,0.00284765 C6.55332465,0.00284765 5.21473515,0.3604441 3.98916505,1.07576485 C2.7634671,1.79095775 1.79270205,2.76133925 1.07776485,3.9870372 C0.36231625,5.21273515 0.0047198,6.5517082 0.0047198,8.00255 C0.0047198,9.4539032 0.3624441,10.792237 1.077637,12.0180628 C1.79295775,13.243505 2.76333925,14.2145258 3.9890372,14.9293351 C5.21473515,15.6446559 6.5537082,16.0022523 8.00455,16.0022523 C9.4559032,16.0022523 10.7944927,15.6446559 12.0200628,14.9293351 C13.2456329,14.2141423 14.2165258,13.2436329 14.9313351,12.0180628 C15.646528,10.7923648 16.0041245,9.4533918 16.0041245,8.00255 C16.0041245,6.5511968 15.646528,5.2126073 14.931463,3.9870372 M11.77523,9.8873147 C11.9071712,10.019128 11.9732697,10.1756164 11.9732697,10.3561406 C11.9732697,10.5435687 11.9071712,10.7033812 11.77523,10.8351946 L10.8378338,11.7727186 C10.7058927,11.9046598 10.546208,11.9706304 10.358652,11.9706304 C10.1781278,11.9706304 10.0216395,11.9046598 9.88995395,11.7727186 L8.00455,9.8873147 L6.11914605,11.7727186 C5.98720485,11.9046598 5.83097215,11.9706304 5.65044795,11.9706304 C5.462892,11.9706304 5.30320735,11.9046598 5.17126615,11.7727186 L4.2337421,10.8351946 C4.1018009,10.7033812 4.0358303,10.5435687 4.0358303,10.3561406 C4.0358303,10.1756164 4.1018009,10.019128 4.2337421,9.8873147 L6.11914605,8.0020386 L4.2337421,6.11663465 C4.1018009,5.9848213 4.0358303,5.82846075 4.0358303,5.64793655 C4.0358303,5.4603806 4.1018009,5.30069595 4.2337421,5.16875475 L5.17126615,4.23135855 C5.30320735,4.09941735 5.462892,4.03344675 5.65044795,4.03344675 C5.83097215,4.03344675 5.98720485,4.09941735 6.11914605,4.23135855 L8.00455,6.11663465 L9.88995395,4.23135855 C10.0216395,4.09941735 10.1781278,4.03344675 10.358652,4.03344675 C10.546208,4.03344675 10.7058926,4.09941735 10.8378338,4.23135855 L11.77523,5.16875475 C11.9071712,5.30069595 11.9732697,5.4603806 11.9732697,5.64793655 C11.9732697,5.82846075 11.9071712,5.9848213 11.77523,6.11663465 L9.88995395,8.0020386 L11.77523,9.8873147" id="Shape" fill="#DA4453" fill-rule="nonzero"></path>
    </g>
</svg>